# Blender 4.0.2
# www.blender.org
mtllib mesh.mtl
o Circle.001
v 0.074500 0.721441 -0.893638
v -0.553942 0.899954 -0.622236
v -0.808658 0.972137 0.016919
v -0.553942 0.899954 0.656074
v -0.540618 0.510070 -0.608384
v 0.074493 0.335334 -0.874047
v -0.789813 0.580688 0.016916
v -0.540618 0.510070 0.642217
v 0.074493 0.335334 0.894569
v 0.676103 0.164846 0.635561
v 0.925298 0.094228 0.010261
v 0.676103 0.164846 -0.615039
v -0.133612 0.000000 -0.944656
v 0.133750 0.000000 -0.944599
v -0.762257 0.000000 -0.573963
v -0.573394 -0.000000 -0.762492
v -0.944802 0.000000 0.133259
v -0.944847 0.000000 -0.133151
v -0.573277 0.000000 0.762541
v -0.762305 0.000000 0.573848
v 0.133612 0.000000 0.944656
v -0.133750 0.000000 0.944599
v 0.762236 0.000000 0.574013
v 0.573649 0.000000 0.762387
v 0.944803 0.000000 -0.133257
v 0.944875 -0.000000 0.133083
v 0.573484 0.000000 -0.762455
v 0.762304 -0.000000 -0.573849
v -0.476187 0.877497 -0.752658
v -0.659001 0.929304 -0.563409
v 0.204070 0.684722 -0.933953
v -0.055313 0.758228 -0.933854
v -0.834450 0.979024 -0.123159
v -0.834513 0.979042 0.143523
v -0.658931 0.929285 0.584106
v -0.476360 0.877546 0.773105
v -0.055083 0.758163 0.954475
v 0.204299 0.684657 0.954376
v 0.074500 0.721441 0.913737
v 0.624690 0.565524 0.773388
v 0.808053 0.513562 0.583766
v 0.689148 0.547258 0.649116
v 0.983332 0.463890 0.143942
v 0.983499 0.463843 -0.123002
v 0.943743 0.475109 0.010264
v 0.807918 0.513600 -0.563583
v 0.625028 0.565428 -0.752720
v 0.689148 0.547258 -0.628588
v -0.497280 0.880076 -0.773763
v -0.680093 0.931883 -0.584515
v 0.204129 0.685161 -0.963900
v -0.055254 0.758667 -0.963801
v -0.864211 0.982378 -0.123160
v -0.864274 0.982396 0.143522
v -0.680083 0.931386 0.605204
v -0.497512 0.879648 0.794204
v -0.055137 0.757761 0.984422
v 0.204246 0.684256 0.984323
v 0.645815 0.563222 0.794492
v 0.829179 0.511260 0.604870
v 1.013178 0.461408 0.143948
v 1.013345 0.461361 -0.122997
v 0.829134 0.512081 -0.584668
v 0.646244 0.563909 -0.773805
v 0.974722 -0.002482 0.133088
v 0.974650 -0.002482 -0.133252
v 0.594774 -0.002302 0.783491
v 0.783362 -0.002302 0.595117
v -0.133804 -0.000401 0.974546
v 0.133558 -0.000401 0.974603
v -0.783457 0.002102 0.594946
v -0.594429 0.002102 0.783639
v -0.974608 0.003354 -0.133152
v -0.974563 0.003354 0.133258
v -0.594487 0.002578 -0.783598
v -0.783349 0.002578 -0.595069
v 0.783519 -0.001519 -0.594934
v 0.594699 -0.001519 -0.783540
v 0.133809 0.000439 -0.974545
v -0.133553 0.000439 -0.974603
vn -0.9263 0.0449 0.3742
vn 0.9226 -0.0716 -0.3790
vn 0.3822 -0.0525 0.9226
vn -0.9199 0.0989 0.3794
vn 0.2721 0.9623 -0.0022
vn 0.9211 -0.0874 0.3793
vn -0.3853 0.0298 0.9223
vn 0.3862 -0.0226 -0.9221
vn -0.9190 0.1070 -0.3795
vn 0.2680 0.9634 -0.0020
vn 0.2726 0.9621 -0.0000
vn 0.2721 0.9623 0.0024
vn 0.2677 0.9635 0.0021
vn 0.2729 0.9620 -0.0000
vn -0.3840 0.0458 -0.9222
vn 0.9297 0.0448 -0.3655
vn 0.4071 0.0463 0.9122
vn -0.3842 0.0463 0.9221
vn -0.9263 0.0449 -0.3742
vn 0.3902 0.0458 -0.9196
vn 0.9297 0.0448 0.3655
vn 0.2648 0.9643 -0.0082
vn 0.2580 0.9661 -0.0000
vn 0.2620 0.9650 0.0111
vn 0.1719 0.9798 0.1023
vn 0.6993 -0.0858 0.7096
vn -0.0496 -0.9975 0.0497
vn 0.1120 0.9937 -0.0000
vn -0.9947 0.1027 -0.0005
vn -0.6993 0.0856 -0.7096
vn -0.0000 -0.9999 -0.0147
vn 0.0829 0.9966 -0.0001
vn -0.3822 0.0526 -0.9226
vn 0.9966 -0.0829 0.0002
vn 0.7054 -0.0769 0.7047
vn -0.0018 -0.0134 0.9999
vn -0.7063 0.0702 0.7045
vn -0.9937 0.1120 -0.0000
vn -0.7043 0.0861 -0.7047
vn 0.7084 -0.0507 -0.7040
vn 0.0020 0.0147 -0.9999
vn -0.1120 -0.9937 -0.0000
vn 0.1856 0.9786 0.0886
vn -0.0012 -0.0103 0.9999
vn -0.0829 -0.9966 -0.0000
vn 0.0012 0.0101 -0.9999
vn 0.0020 0.0219 -0.9998
vn 0.7013 -0.0697 -0.7094
vn -0.0021 -0.0232 0.9997
vn 0.2726 0.9620 0.0134
vn -0.0608 -0.9963 -0.0609
vn -0.7032 0.0497 0.7093
vn -0.7013 0.0699 0.7094
vn 0.1969 0.9774 -0.0774
vn -0.0543 -0.9970 -0.0544
vn -0.0359 -0.9987 0.0359
vn 0.7032 -0.0493 -0.7093
vn 0.1904 0.9781 -0.0839
vn -0.7001 0.0760 -0.7099
vn -0.0000 -0.9999 -0.0134
vn 0.7001 -0.0764 0.7099
vn 0.2726 0.9620 0.0146
vn 0.9947 -0.1027 0.0004
vn 0.9948 -0.1022 0.0005
vn -0.9947 0.1032 -0.0004
vt 0.095793 0.639207
vt 0.107996 0.799834
vt 0.011944 0.796427
vt -0.000000 0.639208
vt 0.999752 0.124943
vt 0.889048 0.129595
vt 0.889048 0.000000
vt 1.000000 0.007931
vt 0.688718 0.935706
vt 0.578574 0.924179
vt 0.580412 0.781426
vt 0.688718 0.762648
vt 0.218858 0.726255
vt 0.108131 0.720901
vt 0.108000 0.485826
vt 0.218858 0.478563
vt 0.329987 0.029535
vt 0.152183 0.029276
vt 0.179649 0.006963
vt 0.298656 0.007012
vt 0.999953 0.259181
vt 0.889048 0.258830
vt 0.889564 0.141807
vt 0.999953 0.129595
vt 0.936546 0.636640
vt 0.826781 0.624679
vt 0.828047 0.433034
vt 0.936546 0.414655
vt 0.439717 0.887573
vt 0.329741 0.900023
vt 0.329741 0.726936
vt 0.438085 0.744803
vt 0.329741 0.723174
vt 0.218858 0.726253
vt 0.218858 0.478563
vt 0.329471 0.488096
vt 0.452922 0.152584
vt 0.360977 0.032716
vt 0.445655 0.117472
vt 0.029312 0.152264
vt 0.032853 0.117018
vt 0.117033 0.032854
vt 0.325961 0.449190
vt 0.452896 0.326530
vt 0.445399 0.361481
vt 0.361155 0.445709
vt 0.152162 0.449118
vt 0.298540 0.471600
vt 0.179669 0.471551
vt 0.029286 0.326127
vt 0.117179 0.445815
vt 0.032584 0.361141
vt 0.006877 0.299137
vt 0.006895 0.179233
vt 0.471311 0.179425
vt 0.471294 0.299330
vt 0.478394 0.120365
vt 0.598726 0.000045
vt 0.768901 0.000000
vt 0.889048 0.124178
vt 0.889048 0.294290
vt 0.768715 0.414610
vt 0.598540 0.414655
vt 0.478208 0.294400
vt 0.573240 0.578620
vt 0.571660 0.739565
vt 0.478208 0.762673
vt 0.479754 0.605142
vt 0.666864 0.575354
vt 0.681571 0.414655
vt 0.779287 0.418140
vt 0.764899 0.575356
vt 0.573240 0.579006
vt 0.573454 0.414655
vt 0.666864 0.444632
vt 0.666657 0.605497
vt 0.573452 0.739562
vt 0.666864 0.762648
vt 0.108000 0.478563
vt 0.011949 0.481970
vt 0.571659 0.414655
vt 0.478208 0.444655
vt 0.681574 0.736079
vt 0.779290 0.732597
vt -0.000000 0.176346
vt 0.025958 0.114131
vt 0.941900 0.414733
vt 0.941900 0.636718
vt 0.328718 0.726281
vt 0.328718 0.793385
vt 0.321193 0.793357
vt 0.321193 0.726253
vt 0.452552 0.114620
vt 0.478208 0.176573
vt 0.459464 0.670240
vt 0.459464 0.478567
vt 0.466994 0.478563
vt 0.466994 0.670236
vt 0.472875 0.478634
vt 0.472875 0.713728
vt 0.467528 0.713657
vt 0.467528 0.478563
vt 0.306133 0.793397
vt 0.306133 0.726253
vt 0.313663 0.726263
vt 0.313663 0.793407
vt 0.025717 0.363981
vt 0.000010 0.301977
vt 0.894562 0.860702
vt 0.784630 0.871717
vt 0.784630 0.649734
vt 0.893138 0.669034
vt 0.000000 0.918334
vt 0.000000 0.801322
vt 0.067105 0.799834
vt 0.066953 0.916858
vt 0.779290 0.736079
vt 0.779290 0.878786
vt 0.731875 0.877175
vt 0.731816 0.747589
vt 0.108000 0.910968
vt 0.108089 0.737910
vt 0.174868 0.726255
vt 0.174868 0.917904
vt 0.459464 0.478563
vt 0.459464 0.713638
vt 0.412075 0.708767
vt 0.411855 0.486793
vt 0.329809 0.726255
vt 0.329741 0.478563
vt 0.396793 0.479245
vt 0.396793 0.726936
vt 0.826781 0.423956
vt 0.826748 0.645923
vt 0.779290 0.649734
vt 0.779290 0.414655
vt 0.478208 0.905357
vt 0.478208 0.762673
vt 0.525930 0.772417
vt 0.525572 0.902012
vt 0.285631 0.737935
vt 0.285729 0.911022
vt 0.218858 0.917926
vt 0.218858 0.726253
vt 0.204961 0.726260
vt 0.204961 0.793246
vt 0.197445 0.793241
vt 0.197445 0.726255
vt 0.478208 0.302212
vt 0.452314 0.364363
vt 0.396793 0.726284
vt 0.396793 0.478563
vt 0.404324 0.478563
vt 0.404324 0.726283
vt 0.204961 0.793223
vt 0.204961 0.726255
vt 0.212488 0.726261
vt 0.212488 0.793228
vt 0.411855 0.478563
vt 0.411855 0.726277
vt 0.404324 0.726278
vt 0.404324 0.478563
vt 0.291071 0.843318
vt 0.291071 0.726255
vt 0.298602 0.726253
vt 0.298602 0.843316
vt 0.779290 0.871791
vt 0.779290 0.649808
vt 0.306132 0.726253
vt 0.306132 0.843285
vt 0.298602 0.843287
vt 0.298602 0.726255
vt 0.364024 0.452671
vt 0.301408 0.478563
vt 0.182397 0.793339
vt 0.182397 0.726270
vt 0.189920 0.726255
vt 0.189920 0.793325
vt 0.573240 0.924229
vt 0.575079 0.781476
vt 0.472875 0.713736
vt 0.472875 0.478641
vt 0.478208 0.478563
vt 0.478208 0.713658
vt 0.301526 0.000082
vt 0.363847 0.025787
vt 0.197445 0.726255
vt 0.197445 0.793248
vt 0.189920 0.793265
vt 0.189920 0.726272
vt 0.174868 0.793307
vt 0.174868 0.726255
vt 0.182397 0.726289
vt 0.182397 0.793341
vt 0.285729 0.855948
vt 0.285729 0.726282
vt 0.291071 0.726253
vt 0.291071 0.855918
vt 0.176807 0.478477
vt 0.114317 0.452740
vt 0.443433 0.744772
vt 0.445064 0.887543
vt 0.321193 0.726262
vt 0.321193 0.793406
vt 0.313663 0.793397
vt 0.313663 0.726253
vt 0.451933 0.713749
vt 0.451933 0.843389
vt 0.446576 0.843278
vt 0.446576 0.713638
vt 0.114165 0.025892
vt 0.176781 -0.000000
vt 0.470677 0.886614
vt 0.470677 0.713741
vt 0.478208 0.713736
vt 0.478208 0.886609
vt 0.459464 0.713638
vt 0.459464 0.886527
vt 0.451933 0.886532
vt 0.451933 0.713644
vt 0.466994 0.670240
vt 0.466994 0.861902
vt 0.459464 0.861906
vt 0.459464 0.670244
s 0
usemtl bake
f 45/1/1 48/2/1 12/3/1 11/4/1
f 25/5/2 28/6/2 46/7/2 44/8/2
f 21/9/3 24/10/3 40/11/3 38/12/3
f 17/13/4 20/14/4 35/15/4 34/16/4
f 2/17/5 1/18/5 32/19/5 29/20/5
f 23/21/6 26/22/6 43/23/6 41/24/6
f 19/25/7 22/26/7 37/27/7 36/28/7
f 27/29/8 14/30/8 31/31/8 47/32/8
f 15/33/9 18/34/9 33/35/9 30/36/9
f 3/37/10 2/17/10 30/38/10 33/39/10
f 1/18/11 48/40/11 47/41/11 31/42/11
f 39/43/12 4/44/12 36/45/12 37/46/12
f 42/47/11 39/43/11 38/48/11 40/49/11
f 45/50/11 42/47/11 41/51/11 43/52/11
f 48/40/11 45/50/11 44/53/11 46/54/11
f 4/44/13 3/37/13 34/55/13 35/56/13
f 5/57/14 7/58/14 8/59/14 9/60/14 10/61/14 11/62/14 12/63/14 6/64/14
f 39/65/15 42/66/15 10/67/15 9/68/15
f 3/69/16 4/70/16 8/71/16 7/72/16
f 1/73/17 2/74/17 5/75/17 6/76/17
f 48/77/18 1/73/18 6/76/18 12/78/18
f 42/79/19 45/1/19 11/4/19 10/80/19
f 4/81/20 39/65/20 9/68/20 8/82/20
f 2/83/21 3/69/21 7/72/21 5/84/21
f 29/20/22 30/38/22 2/17/22
f 31/42/11 32/19/11 1/18/11
f 33/39/23 34/55/23 3/37/23
f 35/56/24 36/45/24 4/44/24
f 37/46/11 38/48/11 39/43/11
f 40/49/11 41/51/11 42/47/11
f 43/52/11 44/53/11 45/50/11
f 46/54/11 47/41/11 48/40/11
f 47/41/25 46/54/25 63/85/25 64/86/25
f 19/25/26 36/28/26 56/87/26 72/88/26
f 20/89/27 19/90/27 72/91/27 71/92/27
f 34/55/28 33/39/28 53/93/28 54/94/28
f 13/95/29 32/96/29 52/97/29 80/98/29
f 35/99/30 20/100/30 71/101/30 55/102/30
f 14/103/31 13/104/31 80/105/31 79/106/31
f 44/53/32 43/52/32 61/107/32 62/108/32
f 13/109/33 16/110/33 29/111/33 32/112/33
f 66/113/34 62/114/34 61/115/34 65/116/34
f 59/117/35 67/118/35 68/119/35 60/120/35
f 70/121/36 58/122/36 57/123/36 69/124/36
f 55/125/37 71/126/37 72/127/37 56/128/37
f 74/129/38 54/130/38 53/131/38 73/132/38
f 49/133/39 75/134/39 76/135/39 50/136/39
f 78/137/40 64/138/40 63/139/40 77/140/40
f 51/141/41 79/142/41 80/143/41 52/144/41
f 18/145/42 17/146/42 74/147/42 73/148/42
f 36/45/43 35/56/43 55/149/43 56/150/43
f 17/151/44 34/152/44 54/153/44 74/154/44
f 26/155/45 25/156/45 66/157/45 65/158/45
f 33/159/46 18/160/46 73/161/46 53/162/46
f 25/163/47 44/164/47 62/165/47 66/166/47
f 29/111/48 16/110/48 75/167/48 49/168/48
f 43/169/49 26/170/49 65/171/49 61/172/49
f 38/48/50 37/46/50 57/173/50 58/174/50
f 16/175/51 15/176/51 76/177/51 75/178/51
f 40/11/52 24/10/52 67/179/52 59/180/52
f 15/181/53 30/182/53 50/183/53 76/184/53
f 30/38/54 29/20/54 49/185/54 50/186/54
f 24/187/55 23/188/55 68/189/55 67/190/55
f 28/191/56 27/192/56 78/193/56 77/194/56
f 23/195/57 41/196/57 60/197/57 68/198/57
f 41/51/58 40/49/58 59/199/58 60/200/58
f 27/29/59 47/32/59 64/201/59 78/202/59
f 22/203/60 21/204/60 70/205/60 69/206/60
f 46/207/61 28/208/61 77/209/61 63/210/61
f 32/19/62 31/42/62 51/211/62 52/212/62
f 21/213/63 38/214/63 58/215/63 70/216/63
f 31/217/64 14/218/64 79/219/64 51/220/64
f 37/221/65 22/222/65 69/223/65 57/224/65
